<?xml version="1.0" encoding="UTF-8"?>
<svg width="970px" height="970px" viewBox="0 0 970 970" version="1.1" xmlns="http://www.w3.org/2000/svg">
    <!-- Generator: Sketch 55.2 (78181) - https://sketchapp.com -->
    <title>board</title>
    <desc>Created with Sketch.</desc>
    <g id="Page-1" stroke="none" stroke-width="1" fill="none" fill-rule="evenodd">
        <g id="Main-Window" transform="translate(-475.000000, -55.000000)">
            <g id="board" transform="translate(480.000000, 60.000000)">
                <g id="background">
                    <rect id="bg_plane" stroke="#000000" stroke-width="5" fill="#E5D3A6" x="-2.5" y="-2.5" width="965"
                          height="965"></rect>
                    <polygon id="Path" stroke="#000000" stroke-width="4"
                             points="395 55 565 55 565 395 905 395 905 565 565 565 565 905 395 905 395 565 55 565 55 395 395 395"></polygon>
                    <g id="arrow_3"
                       transform="translate(895.000000, 628.000000) rotate(-90.000000) translate(-895.000000, -628.000000) translate(887.000000, 583.000000)">
                        <polygon id="Path-2" fill="#000000" points="8 0 16 14 -5.32907052e-14 14"></polygon>
                        <path d="M8,13.5 L8,87" id="Line" stroke="#000000" stroke-linecap="square"></path>
                        <polyline id="Path-3-Copy-3" stroke="#000000" points="0 90 8 82 16 90"></polyline>
                        <polyline id="Path-3-Copy-5" stroke="#000000" points="0 82 8 74 16 82"></polyline>
                        <polyline id="Path-3-Copy-7" stroke="#000000" points="0 74 8 66 16 74"></polyline>
                        <polyline id="Path-3-Copy-9" stroke="#000000" points="0 66 8 58 16 66"></polyline>
                        <polyline id="Path-3-Copy-4" stroke="#000000" points="0 86 8 78 16 86"></polyline>
                        <polyline id="Path-3-Copy-6" stroke="#000000" points="0 78 8 70 16 78"></polyline>
                        <polyline id="Path-3-Copy-8" stroke="#000000" points="0 70 8 62 16 70"></polyline>
                    </g>
                    <g id="arrow_2"
                       transform="translate(628.000000, 65.000000) rotate(-180.000000) translate(-628.000000, -65.000000) translate(620.000000, 20.000000)">
                        <polygon id="Path-2" fill="#000000" points="8 0 16 14 -5.32907052e-14 14"></polygon>
                        <path d="M8,13.5 L8,87" id="Line" stroke="#000000" stroke-linecap="square"></path>
                        <polyline id="Path-3-Copy-3" stroke="#000000" points="0 90 8 82 16 90"></polyline>
                        <polyline id="Path-3-Copy-5" stroke="#000000" points="0 82 8 74 16 82"></polyline>
                        <polyline id="Path-3-Copy-7" stroke="#000000" points="0 74 8 66 16 74"></polyline>
                        <polyline id="Path-3-Copy-9" stroke="#000000" points="0 66 8 58 16 66"></polyline>
                        <polyline id="Path-3-Copy-4" stroke="#000000" points="0 86 8 78 16 86"></polyline>
                        <polyline id="Path-3-Copy-6" stroke="#000000" points="0 78 8 70 16 78"></polyline>
                        <polyline id="Path-3-Copy-8" stroke="#000000" points="0 70 8 62 16 70"></polyline>
                    </g>
                    <g id="arrow_1"
                       transform="translate(65.000000, 332.000000) rotate(-270.000000) translate(-65.000000, -332.000000) translate(57.000000, 287.000000)">
                        <polygon id="Path-2" fill="#000000" points="8 0 16 14 -5.32907052e-14 14"></polygon>
                        <path d="M8,13.5 L8,87" id="Line" stroke="#000000" stroke-linecap="square"></path>
                        <polyline id="Path-3-Copy-3" stroke="#000000" points="0 90 8 82 16 90"></polyline>
                        <polyline id="Path-3-Copy-5" stroke="#000000" points="0 82 8 74 16 82"></polyline>
                        <polyline id="Path-3-Copy-7" stroke="#000000" points="0 74 8 66 16 74"></polyline>
                        <polyline id="Path-3-Copy-9" stroke="#000000" points="0 66 8 58 16 66"></polyline>
                        <polyline id="Path-3-Copy-4" stroke="#000000" points="0 86 8 78 16 86"></polyline>
                        <polyline id="Path-3-Copy-6" stroke="#000000" points="0 78 8 70 16 78"></polyline>
                        <polyline id="Path-3-Copy-8" stroke="#000000" points="0 70 8 62 16 70"></polyline>
                    </g>
                    <g id="arrow_0" transform="translate(324.000000, 850.000000)">
                        <polygon id="Path-2" fill="#000000" points="8 0 16 14 -5.32907052e-14 14"></polygon>
                        <path d="M8,13.5 L8,87" id="Line" stroke="#000000" stroke-linecap="square"></path>
                        <polyline id="Path-3-Copy-3" stroke="#000000" points="0 90 8 82 16 90"></polyline>
                        <polyline id="Path-3-Copy-5" stroke="#000000" points="0 82 8 74 16 82"></polyline>
                        <polyline id="Path-3-Copy-7" stroke="#000000" points="0 74 8 66 16 74"></polyline>
                        <polyline id="Path-3-Copy-9" stroke="#000000" points="0 66 8 58 16 66"></polyline>
                        <polyline id="Path-3-Copy-4" stroke="#000000" points="0 86 8 78 16 86"></polyline>
                        <polyline id="Path-3-Copy-6" stroke="#000000" points="0 78 8 70 16 78"></polyline>
                        <polyline id="Path-3-Copy-8" stroke="#000000" points="0 70 8 62 16 70"></polyline>
                    </g>
                </g>
                <g id="positions" transform="translate(20.000000, 20.000000)" stroke="#000000" stroke-width="3">
                    <circle id="pos_39" fill="#FFFFFF" cx="460" cy="885" r="33.5"></circle>
                    <circle id="pos_38" fill="#FFFFFF" cx="545" cy="885" r="33.5"></circle>
                    <circle id="pos_37" fill="#FFFFFF" cx="545" cy="800" r="33.5"></circle>
                    <circle id="pos_36" fill="#FFFFFF" cx="545" cy="715" r="33.5"></circle>
                    <circle id="pos_35" fill="#FFFFFF" cx="545" cy="630" r="33.5"></circle>
                    <circle id="pos_34" fill="#FFFFFF" cx="545" cy="545" r="33.5"></circle>
                    <circle id="pos_33" fill="#FFFFFF" cx="630" cy="545" r="33.5"></circle>
                    <circle id="pos_32" fill="#FFFFFF" cx="715" cy="545" r="33.5"></circle>
                    <circle id="pos_31" fill="#FFFFFF" cx="800" cy="545" r="33.5"></circle>
                    <circle id="pos_30" fill="#14B54F" cx="885" cy="545" r="33.5"></circle>
                    <circle id="pos_29" fill="#FFFFFF" cx="885" cy="460" r="33.5"></circle>
                    <circle id="pos_28" fill="#FFFFFF" cx="885" cy="375" r="33.5"></circle>
                    <circle id="pos_27" fill="#FFFFFF" cx="800" cy="375" r="33.5"></circle>
                    <circle id="pos_26" fill="#FFFFFF" cx="715" cy="375" r="33.5"></circle>
                    <circle id="pos_25" fill="#FFFFFF" cx="630" cy="375" r="33.5"></circle>
                    <circle id="pos_24" fill="#FFFFFF" cx="545" cy="375" r="33.5"></circle>
                    <circle id="pos_23" fill="#FFFFFF" cx="545" cy="290" r="33.5"></circle>
                    <circle id="pos_22" fill="#FFFFFF" cx="545" cy="205" r="33.5"></circle>
                    <circle id="pos_21" fill="#FFFFFF" cx="545" cy="120" r="33.5"></circle>
                    <circle id="pos_20" fill="#369AE0" cx="545" cy="35" r="33.5"></circle>
                    <circle id="pos_19" fill="#FFFFFF" cx="460" cy="35" r="33.5"></circle>
                    <circle id="pos_18" fill="#FFFFFF" cx="375" cy="35" r="33.5"></circle>
                    <circle id="pos_17" fill="#FFFFFF" cx="375" cy="120" r="33.5"></circle>
                    <circle id="pos_16" fill="#FFFFFF" cx="375" cy="205" r="33.5"></circle>
                    <circle id="pos_15" fill="#FFFFFF" cx="375" cy="290" r="33.5"></circle>
                    <circle id="pos_14" fill="#FFFFFF" cx="375" cy="375" r="33.5"></circle>
                    <circle id="pos_13" fill="#FFFFFF" cx="290" cy="375" r="33.5"></circle>
                    <circle id="pos_12" fill="#FFFFFF" cx="205" cy="375" r="33.5"></circle>
                    <circle id="pos_11" fill="#FFFFFF" cx="120" cy="375" r="33.5"></circle>
                    <circle id="pos_10" fill="#EE4424" cx="35" cy="375" r="33.5"></circle>
                    <circle id="pos_9" fill="#FFFFFF" cx="35" cy="460" r="33.5"></circle>
                    <circle id="pos_8" fill="#FFFFFF" cx="35" cy="545" r="33.5"></circle>
                    <circle id="pos_7" fill="#FFFFFF" cx="120" cy="545" r="33.5"></circle>
                    <circle id="pos_6" fill="#FFFFFF" cx="205" cy="545" r="33.5"></circle>
                    <circle id="pos_5" fill="#FFFFFF" cx="290" cy="545" r="33.5"></circle>
                    <circle id="pos_4" fill="#FFFFFF" cx="375" cy="545" r="33.5"></circle>
                    <circle id="pos_3" fill="#FFFFFF" cx="375" cy="630" r="33.5"></circle>
                    <circle id="pos_2" fill="#FFFFFF" cx="375" cy="715" r="33.5"></circle>
                    <circle id="pos_1" fill="#FFFFFF" cx="375" cy="800" r="33.5"></circle>
                    <circle id="pos_0" fill="#FFEA51" cx="375" cy="885" r="33.5"></circle>
                </g>
                <g id="wining_positions" transform="translate(115.000000, 115.000000)" stroke="#000000"
                   stroke-width="2">
                    <g id="blue" transform="translate(340.000000, 0.000000)" fill="#369AE0">
                        <circle id="Oval-Copy-59" cx="25" cy="25" r="24"></circle>
                        <circle id="Oval-Copy-60" cx="25" cy="110" r="24"></circle>
                        <circle id="Oval-Copy-61" cx="25" cy="195" r="24"></circle>
                        <circle id="Oval-Copy-75" cx="25" cy="280" r="24"></circle>
                    </g>
                    <g id="yellow" transform="translate(340.000000, 425.000000)" fill="#FFEA51">
                        <circle id="Oval-Copy-59" cx="25" cy="25" r="24"></circle>
                        <circle id="Oval-Copy-60" cx="25" cy="110" r="24"></circle>
                        <circle id="Oval-Copy-61" cx="25" cy="195" r="24"></circle>
                        <circle id="Oval-Copy-75" cx="25" cy="280" r="24"></circle>
                    </g>
                    <g id="red" transform="translate(0.000000, 340.000000)" fill="#EE4424">
                        <circle id="Oval-Copy-59"
                                transform="translate(25.000000, 25.000000) rotate(-90.000000) translate(-25.000000, -25.000000) "
                                cx="25" cy="25" r="24"></circle>
                        <circle id="Oval-Copy-60"
                                transform="translate(110.000000, 25.000000) rotate(-90.000000) translate(-110.000000, -25.000000) "
                                cx="110" cy="25" r="24"></circle>
                        <circle id="Oval-Copy-61"
                                transform="translate(195.000000, 25.000000) rotate(-90.000000) translate(-195.000000, -25.000000) "
                                cx="195" cy="25" r="24"></circle>
                        <circle id="Oval-Copy-75"
                                transform="translate(280.000000, 25.000000) rotate(-90.000000) translate(-280.000000, -25.000000) "
                                cx="280" cy="25" r="24"></circle>
                    </g>
                    <g id="green" transform="translate(425.000000, 340.000000)" fill="#14B54F">
                        <circle id="Oval-Copy-59"
                                transform="translate(25.000000, 25.000000) rotate(-90.000000) translate(-25.000000, -25.000000) "
                                cx="25" cy="25" r="24"></circle>
                        <circle id="Oval-Copy-60"
                                transform="translate(110.000000, 25.000000) rotate(-90.000000) translate(-110.000000, -25.000000) "
                                cx="110" cy="25" r="24"></circle>
                        <circle id="Oval-Copy-61"
                                transform="translate(195.000000, 25.000000) rotate(-90.000000) translate(-195.000000, -25.000000) "
                                cx="195" cy="25" r="24"></circle>
                        <circle id="Oval-Copy-75"
                                transform="translate(280.000000, 25.000000) rotate(-90.000000) translate(-280.000000, -25.000000) "
                                cx="280" cy="25" r="24"></circle>
                    </g>
                </g>
                <g id="starting_positions" transform="translate(20.000000, 20.000000)" stroke="#000000"
                   stroke-width="3">
                    <g id="yellow" transform="translate(0.000000, 765.000000)" fill="#FFEA51">
                        <circle id="Oval-Copy-6" cx="35" cy="120" r="33.5"></circle>
                        <circle id="Oval-Copy-8" cx="35" cy="35" r="33.5"></circle>
                        <circle id="Oval-Copy-7" cx="120" cy="120" r="33.5"></circle>
                        <circle id="Oval-Copy-72" cx="120" cy="35" r="33.5"></circle>
                    </g>
                    <g id="red" fill="#EE4424">
                        <circle id="Oval-Copy-24" cx="35" cy="35" r="33.5"></circle>
                        <circle id="Oval-Copy-26" cx="35" cy="120" r="33.5"></circle>
                        <circle id="Oval-Copy-27" cx="120" cy="35" r="33.5"></circle>
                        <circle id="Oval-Copy-29" cx="120" cy="120" r="33.5"></circle>
                    </g>
                    <g id="green" transform="translate(765.000000, 765.000000)" fill="#14B54F">
                        <circle id="Oval-Copy-9" cx="35" cy="120" r="33.5"></circle>
                        <circle id="Oval-Copy-73" cx="35" cy="35" r="33.5"></circle>
                        <circle id="Oval-Copy-10" cx="120" cy="120" r="33.5"></circle>
                        <circle id="Oval-Copy-74" cx="120" cy="35" r="33.5"></circle>
                    </g>
                    <g id="blue" transform="translate(765.000000, 0.000000)" fill="#369AE0">
                        <circle id="Oval-Copy-30" cx="35" cy="35" r="33.5"></circle>
                        <circle id="Oval-Copy-32" cx="35" cy="120" r="33.5"></circle>
                        <circle id="Oval-Copy-31" cx="120" cy="35" r="33.5"></circle>
                        <circle id="Oval-Copy-33" cx="120" cy="120" r="33.5"></circle>
                    </g>
                </g>
                <g id="figures" transform="translate(0.000000, 0.000000)" stroke-width="1.45454545">
                    <g id="figure_yellow_3" class="draggable figure" transform="translate(3,3)"
                       fill="#FFEA51" stroke="#695C00">
                        <path d="M0.727272727,48.5985577 L0.727272727,54.9621414 C5.8318712,57.8389816 10.9200731,59.2727273 16,59.2727273 C21.0799269,59.2727273 26.1681288,57.8389816 31.2727273,54.9621414 L31.2727273,48.5985577 L16,34.2441937 L0.727272727,48.5985577 Z"
                              id="stomp"></path>
                        <path d="M31.1303065,47.9414475 L22.303234,19.8044006 C19.8889949,20.8112323 17.7907871,21.3189887 16,21.3189887 C14.2092129,21.3189887 12.1110051,20.8112323 9.69676602,19.8044006 L0.869693502,47.9414475 C5.92651644,50.764935 10.9673191,52.1721356 16,52.1721356 C21.0326809,52.1721356 26.0734836,50.764935 31.1303051,47.9414436 Z"
                              id="body"></path>
                        <ellipse id="head" cx="16" cy="10.6508876" rx="9.93939394" ry="9.92361485"></ellipse>
                    </g>
                    <g id="figure_yellow_2" class="draggable figure" transform="translate(0.000000, 765.000000)"
                       fill="#FFEA51"
                       stroke="#695C00">
                        <path d="M0.727272727,48.5985577 L0.727272727,54.9621414 C5.8318712,57.8389816 10.9200731,59.2727273 16,59.2727273 C21.0799269,59.2727273 26.1681288,57.8389816 31.2727273,54.9621414 L31.2727273,48.5985577 L16,34.2441937 L0.727272727,48.5985577 Z"
                              id="stomp"></path>
                        <path d="M31.1303065,47.9414475 L22.303234,19.8044006 C19.8889949,20.8112323 17.7907871,21.3189887 16,21.3189887 C14.2092129,21.3189887 12.1110051,20.8112323 9.69676602,19.8044006 L0.869693502,47.9414475 C5.92651644,50.764935 10.9673191,52.1721356 16,52.1721356 C21.0326809,52.1721356 26.0734836,50.764935 31.1303051,47.9414436 Z"
                              id="body"></path>
                        <ellipse id="head" cx="16" cy="10.6508876" rx="9.93939394" ry="9.92361485"></ellipse>
                    </g>
                    <g id="figure_yellow_1" class="draggable figure" transform="translate(85.000000, 680.000000)"
                       fill="#FFEA51" stroke="#695C00">
                        <path d="M0.727272727,48.5985577 L0.727272727,54.9621414 C5.8318712,57.8389816 10.9200731,59.2727273 16,59.2727273 C21.0799269,59.2727273 26.1681288,57.8389816 31.2727273,54.9621414 L31.2727273,48.5985577 L16,34.2441937 L0.727272727,48.5985577 Z"
                              id="stomp"></path>
                        <path d="M31.1303065,47.9414475 L22.303234,19.8044006 C19.8889949,20.8112323 17.7907871,21.3189887 16,21.3189887 C14.2092129,21.3189887 12.1110051,20.8112323 9.69676602,19.8044006 L0.869693502,47.9414475 C5.92651644,50.764935 10.9673191,52.1721356 16,52.1721356 C21.0326809,52.1721356 26.0734836,50.764935 31.1303051,47.9414436 Z"
                              id="body"></path>
                        <ellipse id="head" cx="16" cy="10.6508876" rx="9.93939394" ry="9.92361485"></ellipse>
                    </g>
                    <g id="figure_yellow_0" class="draggable figure" transform="translate(0.000000, 680.000000)"
                       fill="#FFEA51"
                       stroke="#695C00">
                        <path d="M0.727272727,48.5985577 L0.727272727,54.9621414 C5.8318712,57.8389816 10.9200731,59.2727273 16,59.2727273 C21.0799269,59.2727273 26.1681288,57.8389816 31.2727273,54.9621414 L31.2727273,48.5985577 L16,34.2441937 L0.727272727,48.5985577 Z"
                              id="stomp"></path>
                        <path d="M31.1303065,47.9414475 L22.303234,19.8044006 C19.8889949,20.8112323 17.7907871,21.3189887 16,21.3189887 C14.2092129,21.3189887 12.1110051,20.8112323 9.69676602,19.8044006 L0.869693502,47.9414475 C5.92651644,50.764935 10.9673191,52.1721356 16,52.1721356 C21.0326809,52.1721356 26.0734836,50.764935 31.1303051,47.9414436 Z"
                              id="body"></path>
                        <ellipse id="head" cx="16" cy="10.6508876" rx="9.93939394" ry="9.92361485"></ellipse>
                    </g>
                    <g id="figure_red_2" fill="#EE4424" stroke="#9B0000">
                        <path d="M0.727272727,48.5985577 L0.727272727,54.9621414 C5.8318712,57.8389816 10.9200731,59.2727273 16,59.2727273 C21.0799269,59.2727273 26.1681288,57.8389816 31.2727273,54.9621414 L31.2727273,48.5985577 L16,34.2441937 L0.727272727,48.5985577 Z"
                              id="stomp"></path>
                        <path d="M31.1303065,47.9414475 L22.303234,19.8044006 C19.8889949,20.8112323 17.7907871,21.3189887 16,21.3189887 C14.2092129,21.3189887 12.1110051,20.8112323 9.69676602,19.8044006 L0.869693502,47.9414475 C5.92651644,50.764935 10.9673191,52.1721356 16,52.1721356 C21.0326809,52.1721356 26.0734836,50.764935 31.1303051,47.9414436 Z"
                              id="body"></path>
                        <ellipse id="head" cx="16" cy="10.6508876" rx="9.93939394" ry="9.92361485"></ellipse>
                    </g>
                </g>
            </g>
        </g>
    </g>
</svg>
